<svg height="612pt" viewBox="-61 -19 612 612.00129" width="612pt" xmlns="http://www.w3.org/2000/svg"><path d="m152.128906 248.125h179.867188c1.738281-.058594 3.378906-.808594 4.566406-2.082031 1.179688-1.273438 1.8125-2.964844 1.742188-4.703125v-58.246094c.050781-1.679688-.601563-3.300781-1.800782-4.480469-1.195312-1.179687-2.828125-1.804687-4.507812-1.730469h-179.867188c-1.679687-.074218-3.3125.550782-4.507812 1.730469-1.199219 1.175781-1.851563 2.800781-1.796875 4.480469v58.242188c-.070313 1.738281.554687 3.433593 1.738281 4.707031 1.183594 1.273437 2.824219 2.023437 4.566406 2.082031zm73.6875-47.492188h32.496094c5.523438 0 10 4.476563 10 9.996094 0 5.523438-4.476562 10-10 10h-32.496094c-5.523437 0-10-4.476562-10-10 0-5.519531 4.476563-9.996094 10-9.996094zm0 0"/><path d="m152.128906 305.621094h179.867188c3.421875 0 6.308594-3.792969 6.308594-7.644532v-30.441406c-2.074219.429688-4.1875.625-6.308594.589844h-179.867188c-2.117187.035156-4.230468-.167969-6.304687-.597656v30.449218c0 3.851563 2.882812 7.644532 6.304687 7.644532zm0 0"/><path d="m273.3125 152.792969c0-3.855469-2.710938-7.15625-6.128906-7.15625h-50.230469c-3.421875 0-6.132813 3.300781-6.132813 7.15625v4.09375h62.496094zm0 0"/><path d="m242.0625 416.5c97.101562 0 176.097656-78.992188 176.097656-176.101562 0-97.105469-78.996094-176.097657-176.097656-176.097657-97.105469 0-176.101562 78.992188-176.101562 176.097657 0 97.109374 78.996093 176.101562 176.101562 176.101562zm-116.238281-175.164062v-58.242188c-.042969-6.980469 2.714843-13.691406 7.660156-18.617188 4.945313-4.925781 11.664063-7.660156 18.644531-7.589843h38.6875v-4.09375c0-14.886719 11.679688-27.15625 26.128906-27.15625h50.238282c14.453125 0 26.125 12.269531 26.125 27.15625v4.09375h38.6875c6.984375-.070313 13.695312 2.664062 18.640625 7.589843 4.945312 4.933594 7.710937 11.636719 7.667969 18.617188v114.882812c0 14.878907-11.859376 27.644532-26.308594 27.644532h-179.867188c-14.449218 0-26.304687-12.765625-26.304687-27.644532zm0 0"/><path d="m121.449219 473.324219c37.007812 37.136719 77.386719 70.757812 120.613281 100.425781 43.226562-29.667969 83.605469-63.289062 120.613281-100.425781 36.316407-36.722657 65.207031-73.730469 85.867188-109.980469 25.496093-44.71875 38.414062-88.34375 38.414062-129.660156 0-128.855469-109.863281-233.683594-244.894531-233.683594s-244.898438 104.828125-244.898438 233.683594c0 41.320312 12.921876 84.945312 38.414063 129.660156 20.664063 36.25 49.550781 73.257812 85.871094 109.980469zm120.613281-429.023438c108.132812 0 196.097656 87.96875 196.097656 196.097657 0 108.128906-87.964844 196.101562-196.097656 196.101562-108.128906 0-196.097656-87.972656-196.097656-196.101562 0-108.128907 87.96875-196.097657 196.097656-196.097657zm0 0"/></svg>