<svg id="Capa_1" enable-background="new 0 0 512 512" height="512" viewBox="0 0 512 512" width="512" xmlns="http://www.w3.org/2000/svg"><path d="m86.5 325.651h154.5v32.682h30v-32.682h154.5v32.682h30v-62.682h-184.5v-31.514c56.474-7.375 100.226-55.798 100.226-114.25 0-63.536-51.69-115.226-115.226-115.226s-115.226 51.69-115.226 115.226c0 58.453 43.752 106.876 100.226 114.25v31.514h-184.5v62.682h30zm219.613-190.764v30h-65.113v-52.585h30v22.585z"/><path d="m0 388.333h143v89.005h-143z"/><path d="m369 388.333h143v89.005h-143z"/><path d="m184.5 388.333h143v87.109h-143z"/></svg>